<?xml version="1.0" encoding="UTF-8"?>
<svg id="_Слой_1" data-name="Слой 1" xmlns="http://www.w3.org/2000/svg" viewBox="0 0 43.035 31.74">
  <g>
    <path d="m12.373,27.97c0,2.08-1.687,3.77-3.766,3.77s-3.765-1.69-3.765-3.77,1.685-3.76,3.765-3.76,3.766,1.68,3.766,3.76" style="fill: #b01016;"/>
    <path d="m39.269,27.97c0,2.08-1.686,3.77-3.765,3.77s-3.766-1.69-3.766-3.77,1.686-3.76,3.766-3.76,3.765,1.68,3.765,3.76" style="fill: #b01016;"/>
    <path d="m30.124,16.138v-5.379h3.228c.959-.013,1.803.631,2.044,1.56l1.076,3.712.053.107h-6.401m-8.472.431l-1.614,2.801-2.824-1.62v3.23h-3.228v-3.26l-2.824,1.61-1.613-2.793,2.824-1.614-2.824-1.614,1.613-2.798,2.824,1.615v-3.26h3.228v3.264l2.824-1.613,1.614,2.797-2.824,1.614,2.824,1.641Zm20.522,2.151l-2.851-2.151c-.374-.278-.64-.677-.753-1.13l-1.076-3.712c-.549-1.835-2.227-3.099-4.142-3.12h-1.076v-2.689c0-.892-.722-1.615-1.614-1.615h-1.076c-.891,0-1.613.723-1.613,1.615v2.689-1.076c0-1.188-.964-2.152-2.152-2.152H2.152c-1.188,0-2.152.964-2.152,2.152v18.289c0,1.19.964,2.15,2.152,2.15h1.075c0-2.97,2.409-5.38,5.38-5.38s5.379,2.41,5.379,5.38h16.138c0-2.97,2.408-5.38,5.38-5.38s5.379,2.41,5.379,5.38c1.188,0,2.152-.96,2.152-2.15v-5.38c0-.67-.319-1.31-.861-1.72" style="fill: #b01016;"/>
    <line x1="32.545" y1="3.227" x2="34.428" y2="1.344" style="fill: #b01016;"/>
    <line x1="27.704" y1="3.227" x2="25.821" y2="1.344" style="fill: #b01016;"/>
  </g>
  <rect x="-800.222" y="-982.52" width="1600.02" height="4510.68" style="fill: none;"/>
  <rect x="-800.252" y="-982.52" width="1600" height="4510.71" style="fill: none;"/>
</svg>