<?xml version="1.0" encoding="UTF-8"?>
<svg id="_Слой_1" data-name="Слой 1" xmlns="http://www.w3.org/2000/svg" viewBox="0 0 28.81 28.81">
  <path d="m14.4,0C6.44,0,0,6.445,0,14.405s6.44,14.405,14.4,14.405,14.41-6.444,14.41-14.405S22.36,0,14.4,0m0,26.536c-6.67,0-12.13-5.458-12.13-12.131S7.73,2.275,14.4,2.275s12.13,5.459,12.13,12.13-5.46,12.131-12.13,12.131" style="fill: #b01016;"/>
  <path d="m15.16,6.824h-1.51v7.581c0,.229.07.418.22.531l5.35,5.345,1.06-1.061-5.12-5.118v-7.278" style="fill: #b01016;"/>
  <path d="m15.16,4.548c0,.418-.34.758-.76.758s-.75-.34-.75-.758.33-.758.75-.758.76.339.76.758" style="fill: #b01016;"/>
  <path d="m15.16,24.261c0,.419-.34.758-.76.758s-.75-.339-.75-.758.33-.758.75-.758.76.339.76.758" style="fill: #b01016;"/>
  <path d="m5.31,14.405c0,.419-.34.759-.76.759s-.76-.34-.76-.759.34-.758.76-.758.76.34.76.758" style="fill: #b01016;"/>
  <path d="m25.02,14.405c0,.419-.34.759-.76.759s-.76-.34-.76-.759.34-.758.76-.758.76.34.76.758" style="fill: #b01016;"/>
</svg>