<?xml version="1.0" encoding="UTF-8"?>
<svg id="_Слой_1" data-name="Слой 1" xmlns="http://www.w3.org/2000/svg" viewBox="0 0 47.63 47.73">
  <path d="m23.82,47.73C10.65,47.73,0,37.06,0,23.87S10.65,0,23.82,0s23.81,10.68,23.81,23.87-10.65,23.86-23.81,23.86m0-43.96C12.72,3.77,3.76,12.75,3.76,23.87s8.96,20.09,20.06,20.09,20.05-8.98,20.05-20.09S34.91,3.77,23.82,3.77" style="fill: #b01016;"/>
  <path d="m36.35,18.84h-7.52v-7.53c0-1.39-1.13-2.52-2.51-2.52h-5.01c-1.38,0-2.51,1.13-2.51,2.52v7.53h-7.52c-1.38,0-2.51,1.13-2.51,2.51v5.03c0,1.38,1.13,2.51,2.51,2.51h7.52v7.54c0,1.38,1.13,2.51,2.51,2.51h5.01c1.38,0,2.51-1.13,2.51-2.51v-7.54h7.52c1.38,0,2.51-1.13,2.51-2.51v-5.03c0-1.38-1.13-2.51-2.51-2.51" style="fill: #b01016;"/>
  <rect x="-1005.24" y="-1232.64" width="1600.02" height="4510.68" style="fill: none;"/>
  <rect x="-1005.27" y="-1232.64" width="1600" height="4510.71" style="fill: none;"/>
</svg>