<?xml version="1.0" encoding="UTF-8"?>
<svg id="_Слой_1" data-name="Слой 1" xmlns="http://www.w3.org/2000/svg" viewBox="0 0 50.241 35.17">
  <g>
    <path d="m21.353,4.39h10.048v-1.88c0-1.38-1.131-2.51-2.512-2.51H2.513C1.131,0,0,1.13,0,2.51v16.95c0,1.39,1.131,2.52,2.513,2.52h3.768v6.28l6.28-6.28h3.767v-12.56c0-2.77,2.261-5.03,5.025-5.03" style="fill: #b01016;"/>
    <path d="m47.729,6.9h-26.376c-1.382,0-2.513,1.13-2.513,2.52v16.95c0,1.38,1.131,2.51,2.513,2.51h16.328l6.279,6.29v-6.29h3.769c1.382,0,2.512-1.13,2.512-2.51V9.42c0-1.39-1.13-2.52-2.512-2.52" style="fill: #b01016;"/>
  </g>
  <rect x="-269.998" y="-1510.87" width="1600.02" height="4510.68" style="fill: none;"/>
  <rect x="-270.028" y="-1510.87" width="1600" height="4510.71" style="fill: none;"/>
</svg>