<?xml version="1.0" encoding="UTF-8"?>
<svg id="_Слой_1" data-name="Слой 1" xmlns="http://www.w3.org/2000/svg" viewBox="0 0 44.008 36.406">
  <g>
    <path d="m21.001,18.695h2.007v-2.024l1.749,1.014,1.004-1.738-1.755-1.01,1.755-1.01-1.004-1.738-1.749,1.014v-2.024h-2.007v2.024l-1.75-1.014-1.003,1.738,1.755,1.01-1.755,1.01,1.003,1.738,1.75-1.014v2.024m-17.781,2.682h3.221v-3.219h-3.221v3.219Zm5.367,0h3.22v-3.219h-3.22v3.219Zm5.367,0h3.22v-3.219h-3.22v3.219Zm12.88,0h3.22v-3.219h-3.22v3.219Zm5.367,0h3.22v-3.219h-3.22v3.219Zm5.367,0h3.22v-3.219h-3.22v3.219ZM3.22,26.744h3.221v-3.219h-3.221v3.219Zm5.367,0h3.22v-3.219h-3.22v3.219Zm5.367,0h3.22v-3.219h-3.22v3.219Zm12.88,0h3.22v-3.219h-3.22v3.219Zm5.367,0h3.22v-3.219h-3.22v3.219Zm5.367,0h3.22v-3.219h-3.22v3.219ZM3.22,32.112h3.221v-3.22h-3.221v3.22Zm5.367,0h3.22v-3.22h-3.22v3.22Zm5.367,0h3.22v-3.22h-3.22v3.22Zm12.88,0h3.22v-3.22h-3.22v3.22Zm5.367,0h3.22v-3.22h-3.22v3.22Zm5.367,0h3.22v-3.22h-3.22v3.22Zm-17.71,2.146h4.293v-7.514h-4.293v7.514Zm-18.784,2.148v-20.396H0v-2.146h15.564v-1.611l6.44-6.441,6.44,6.441v1.611h15.564v2.146h-1.074v20.396H1.074Z" style="fill: #b01016;"/>
    <polyline points="22.004 3.038 14.174 10.863 12.66 9.35 22.004 0 31.348 9.35 29.834 10.863 22.004 3.038" style="fill: #b01016;"/>
  </g>
  <rect x="-204.984" y="-850.36" width="1600.02" height="4510.68" style="fill: none;"/>
  <rect x="-205.014" y="-850.36" width="1600" height="4510.71" style="fill: none;"/>
</svg>