<?xml version="1.0" encoding="UTF-8"?>
<svg id="_Слой_1" data-name="Слой 1" xmlns="http://www.w3.org/2000/svg" viewBox="0 0 47.228 20.981">
  <g>
    <path d="m46.155,5.918h-1.074c-.429,0-.805.269-.966.646l-1.717,7.962H4.83l-1.717-7.962c-.161-.377-.537-.646-.966-.646h-1.073c-.591,0-1.074.484-1.074,1.076v9.683c0,1.183.966,2.152,2.147,2.152h1.074v2.152h3.219v-2.152h34.348v2.152h3.22v-2.152h1.073c1.181,0,2.147-.969,2.147-2.152V6.994c0-.592-.483-1.076-1.073-1.076" style="fill: #b01016;"/>
    <path d="m5.099,5.756l.107.377,1.342,6.24h34.079l1.342-6.24.107-.377c.483-1.183,1.664-1.99,2.952-1.99v-1.614c0-1.183-.966-2.152-2.147-2.152H4.294c-1.181,0-2.147.969-2.147,2.152v1.614c1.288,0,2.469.753,2.952,1.99" style="fill: #b01016;"/>
  </g>
  <rect x="-203.374" y="-980.869" width="1600.02" height="4510.68" style="fill: none;"/>
  <rect x="-203.404" y="-980.869" width="1600" height="4510.71" style="fill: none;"/>
</svg>